PathFileType	4	(X/Y/Z)	C:/Users/opensim2020/Desktop/walking_exp_matlab/subject01_walking17_run.trc																																																																																																																																																																																					
DataRate	CameraRate	NumFrames	NumMarkers	Units	OrigDataRate	OrigDataStartFrame	OrigNumFrames																																																																																																																																																																																	
100	100	6	61	mm	100	271	87																																																																																																																																																																																	
Frame#	Time	LTHI			LKNE			RELB			STRN			RWRA			LSHO			RFRM			RUPA			RSHO			RASI			RBHD			RFIN			LFHD			RFHD			CLAV			LHEE			RWRB			LASI			LBHD			LWRA			LTIB			RTHI			LWRB			LTOE			RKNE			C7			LFRM			LFIN			LUPA			LELB			RTIB			RTOE			RBAK			RANK			T10			LPSI			LANK			RHEE			RPSI			*39			*40			*41			*42			*43			*44			*45			*46			*47			*48			*49			*50			*51			*52			*53			*54			*55			*56			*57			*58			*59			*60		
		X1	Y1	Z1	X2	Y2	Z2	X3	Y3	Z3	X4	Y4	Z4	X5	Y5	Z5	X6	Y6	Z6	X7	Y7	Z7	X8	Y8	Z8	X9	Y9	Z9	X10	Y10	Z10	X11	Y11	Z11	X12	Y12	Z12	X13	Y13	Z13	X14	Y14	Z14	X15	Y15	Z15	X16	Y16	Z16	X17	Y17	Z17	X18	Y18	Z18	X19	Y19	Z19	X20	Y20	Z20	X21	Y21	Z21	X22	Y22	Z22	X23	Y23	Z23	X24	Y24	Z24	X25	Y25	Z25	X26	Y26	Z26	X27	Y27	Z27	X28	Y28	Z28	X29	Y29	Z29	X30	Y30	Z30	X31	Y31	Z31	X32	Y32	Z32	X33	Y33	Z33	X34	Y34	Z34	X35	Y35	Z35	X36	Y36	Z36	X37	Y37	Z37	X38	Y38	Z38	X39	Y39	Z39	X40	Y40	Z40	X41	Y41	Z41	X42	Y42	Z42	X43	Y43	Z43	X44	Y44	Z44	X45	Y45	Z45	X46	Y46	Z46	X47	Y47	Z47	X48	Y48	Z48	X49	Y49	Z49	X50	Y50	Z50	X51	Y51	Z51	X52	Y52	Z52	X53	Y53	Z53	X54	Y54	Z54	X55	Y55	Z55	X56	Y56	Z56	X57	Y57	Z57	X58	Y58	Z58	X59	Y59	Z59	X60	Y60	Z60	X61	Y61	Z61
																																																																																																																																																																																								
1	0	-2046.9231	535.573	-541.01605	-2057.78296	404.96506	-526.47125	-2143.07715	1038.58997	-56.94365	-1890.88538	1118.81689	-362.45972	-1962.06323	900.56525	-164.10863	-1938.4187	1325.28271	-508.14383	-2070.46387	934.72424	-83.836	-2096.07129	1155.0835	-86.64118	-1962.04797	1302.38367	-197.90511	-2041.4679	888.98181	-281.36746	-1989.6571	1547.31592	-264.01477	-1905.72424	843.85791	-151.58194	-1910.19409	1600.45776	-402.74603	-1883.21985	1612.41235	-292.60489	-1899.20142	1279.67297	-349.34149	-2462.85303	411.74051	-423.90408	-1981.30847	860.22992	-125.91565	-2023.948	881.44684	-481.7139	-2014.85608	1539.97839	-379.93768	-1941.61963	896.35876	-564.57153	-2233.79297	388.39847	-528.55835	-2036.45142	564.1908	-224.13754	-1962.2998	866.74915	-612.8988	-2509.72192	230.5585	-485.16577	-1976.5155	416.1113	-255.87115	-2030.19373	1370.49927	-351.75711	-2015.57129	966.52191	-662.06812	-1905.60791	825.1626	-571.98285	-2013.48499	1198.39172	-635.29999	-2077.47754	1072.60681	-692.81903	-2043.87891	254.89281	-256.98059	-1979.70667	23.70094	-326.07547	-2129.02686	1201.44019	-293.92035	-2114.24072	66.17139	-318.42352	-2137.88037	1110.96277	-383.56412	-2201.01636	919.27942	-455.18994	-2443.97266	371.99213	-479.56061	-2170.27466	35.50293	-368.63171	-2214.68799	921.2843	-304.03027	1973.04785	1023.46545	-3101.8833	2012.59583	1022.12732	-3140.7085	NaN	NaN	NaN	-1900.31519	1644.38928	-313.96225	NaN	NaN	NaN	NaN	NaN	NaN	NaN	NaN	NaN	NaN	NaN	NaN	NaN	NaN	NaN	NaN	NaN	NaN	NaN	NaN	NaN	NaN	NaN	NaN	NaN	NaN	NaN	NaN	NaN	NaN	NaN	NaN	NaN	NaN	NaN	NaN	NaN	NaN	NaN	NaN	NaN	NaN	NaN	NaN	NaN	NaN	NaN	NaN	NaN	NaN	NaN	NaN	NaN	NaN
2	0.01	-1978.64648	541.48511	-543.45599	-1979.63	407.58905	-526.48071	-2078.81665	1019.75458	-60.05401	-1846.64575	1116.74658	-365.05399	-1894.20483	901.87561	-179.6781	-1898.93396	1324.3822	-510.63126	-2001.01196	922.22217	-95.54359	-2036.85205	1139.75049	-87.03027	-1916.85583	1295.88123	-198.90199	-2002.39478	883.84711	-280.37833	-1946.07031	1543.26624	-261.4845	-1834.37817	849.06525	-172.39041	-1868.64966	1599.3866	-400.2377	-1840.78955	1610.50537	-290.23865	-1854.79309	1277.50854	-351.21713	-2384.177	404.23843	-426.69385	-1908.45813	857.47913	-143.63994	-1982.17126	876.29218	-479.53638	-1972.11853	1536.64758	-377.23264	-1923.28943	889.38379	-587.68201	-2152.03223	384.59122	-531.12927	-2009.7074	560.37463	-224.54468	-1947.36499	865.10199	-637.3056	-2420.96826	222.31343	-492.22443	-1949.54004	413.08353	-258.23215	-1985.68591	1369.72314	-349.51331	-1996.05042	971.12488	-676.07098	-1890.83044	818.30377	-603.64423	-1981.22949	1200.89563	-637.29388	-2053.76733	1081.62366	-697.80652	-2026.71765	253.56038	-256.80713	-1980.15186	23.26562	-325.65387	-2084.65967	1194.03699	-292.20682	-2113.69995	66.30527	-318.70636	-2095.4292	1106.18896	-381.13794	-2162.00659	910.9361	-455.85291	-2362.47314	364.659	-482.16696	-2171.04907	36.61428	-368.94479	-2176.26831	914.84296	-305.15356	1973.09644	1023.40289	-3101.96899	2012.5929	1022.18335	-3140.71338	NaN	NaN	NaN	-1859.80591	1641.03687	-310.41492	NaN	NaN	NaN	NaN	NaN	NaN	NaN	NaN	NaN	NaN	NaN	NaN	NaN	NaN	NaN	NaN	NaN	NaN	NaN	NaN	NaN	NaN	NaN	NaN	NaN	NaN	NaN	NaN	NaN	NaN	NaN	NaN	NaN	NaN	NaN	NaN	NaN	NaN	NaN	NaN	NaN	NaN	NaN	NaN	NaN	NaN	NaN	NaN	NaN	NaN	NaN	NaN	NaN	NaN
3	0.02	-1910.38586	549.28442	-544.67767	-1900.5127	417.57684	-525.55823	-2013.05579	1006.61914	-64.99821	-1802.95544	1115.91296	-367.50751	-1826.25928	907.85101	-197.82846	-1858.15515	1324.20532	-513.13239	-1930.53564	917.19794	-107.79004	-1976.97864	1128.88074	-89.62463	-1870.0155	1293.58337	-199.66628	-1956.01758	882.534	-277.77289	-1902.55286	1540.51587	-259.88898	-1763.2384	859.78619	-193.34608	-1826.54761	1598.89563	-398.37231	-1798.18433	1609.51379	-288.80969	-1809.88257	1277.74341	-351.36737	-2310.02686	395.63669	-429.58984	-1834.95837	860.71417	-162.12448	-1941.02673	871.51111	-477.94327	-1929.04028	1534.63293	-375.41	-1904.28613	887.4433	-611.23444	-2070.79541	385.483	-531.94141	-1980.8252	557.651	-224.92271	-1932.86609	868.01581	-660.50867	-2328.86255	211.0287	-496.69421	-1925.93323	407.78391	-259.21429	-1940.49487	1370.99609	-348.63754	-1975.9585	981.40674	-689.07715	-1876.43298	816.92957	-635.6004	-1948.68933	1207.90698	-636.82996	-2026.81311	1092.16614	-701.42755	-2016.35046	251.71628	-255.66791	-1981.30359	22.45788	-325.69662	-2040.47058	1193.42102	-290.90875	-2113.14697	68.38177	-317.41245	-2051.73877	1108.78052	-378.95166	-2121.37183	906.97931	-455.22546	-2283.35718	357.93637	-484.96152	-2171.81079	39.66825	-367.68103	-2134.38062	912.66895	-309.34927	1973.17114	1023.45959	-3101.82739	2012.48376	1022.09979	-3140.71216	NaN	NaN	NaN	-1819.10156	1638.9812	-306.90854	NaN	NaN	NaN	NaN	NaN	NaN	NaN	NaN	NaN	NaN	NaN	NaN	NaN	NaN	NaN	NaN	NaN	NaN	NaN	NaN	NaN	NaN	NaN	NaN	NaN	NaN	NaN	NaN	NaN	NaN	NaN	NaN	NaN	NaN	NaN	NaN	NaN	NaN	NaN	NaN	NaN	NaN	NaN	NaN	NaN	NaN	NaN	NaN	NaN	NaN	NaN	NaN	NaN	NaN
4	0.03	-1842.27551	560.89014	-545.39917	-1821.67236	431.13763	-523.88293	-1948.00916	998.13373	-71.8101	-1759.56006	1115.9696	-370.05096	-1758.22058	920.3847	-213.64235	-1816.40979	1325.65503	-514.38953	-1860.01123	918.638	-120.33079	-1918.49072	1122.26367	-93.66724	-1821.75745	1293.19275	-201.70778	-1920.98779	880.17902	-272.85638	-1858.8291	1539.01196	-259.19748	-1693.33044	876.87897	-214.21555	-1783.58887	1598.86279	-397.50952	-1754.99353	1608.78735	-287.82031	-1765.61304	1277.81689	-353.83817	-2231.12476	381.28687	-430.75391	-1762.95386	870.62469	-180.52051	-1900.26123	868.52655	-477.17365	-1885.59656	1533.77246	-374.66556	-1883.44263	890.21692	-633.97528	-1989.64502	388.44958	-531.79834	-1951.17627	554.63495	-225.52997	-1917.93481	875.33038	-681.51953	-2230.97681	197.37601	-499.48474	-1907.44702	399.93683	-258.94379	-1895.38879	1371.1947	-348.06097	-1951.45471	991.86395	-700.40253	-1861.49573	820.99609	-664.90234	-1916.52698	1218.03601	-635.37054	-1998.57385	1108.15991	-703.7948	-2007.25549	249.96791	-255.15474	-1981.76978	22.64302	-325.56308	-1995.72485	1195.15076	-287.98285	-2111.78271	70.94877	-315.41504	-2008.69238	1107.93066	-376.51273	-2078.36499	910.38837	-455.08832	-2199.48901	345.46573	-486.02402	-2172.15918	46.49029	-365.38257	-2092.68823	917.9931	-313.14236	1973.09509	1023.59106	-3101.85425	2012.54932	1022.09332	-3140.74951	NaN	NaN	NaN	-1777.87427	1638.20972	-304.67038	NaN	NaN	NaN	NaN	NaN	NaN	NaN	NaN	NaN	NaN	NaN	NaN	NaN	NaN	NaN	NaN	NaN	NaN	NaN	NaN	NaN	NaN	NaN	NaN	NaN	NaN	NaN	NaN	NaN	NaN	NaN	NaN	NaN	NaN	NaN	NaN	NaN	NaN	NaN	NaN	NaN	NaN	NaN	NaN	NaN	NaN	NaN	NaN	NaN	NaN	NaN	NaN	NaN	NaN
5	0.04	-1775.54053	575.40833	-545.49536	-1744.31287	447.54703	-521.26678	-1883.79175	993.40973	-80.20609	-1716.66113	1116.8623	-373.16907	-1695.07141	935.52295	-230.49625	-1774.33398	1328.57983	-514.70801	-1791.27759	924.33185	-133.72336	-1861.39795	1119.12695	-98.28133	-1772.96912	1294.94775	-203.69061	-1870.28918	880.40155	-272.09613	-1815.00586	1538.8562	-259.3894	-1625.35693	899.284	-234.54782	-1740.12891	1600.0293	-397.52878	-1711.41064	1609.15808	-287.58469	-1722.12048	1278.68201	-356.89172	-2153.40576	365.26236	-431.43671	-1692.71777	886.81323	-198.36917	-1855.36597	872.42914	-477.58722	-1842.17957	1534.27673	-374.98071	-1860.78479	897.97992	-654.66382	-1908.53552	392.27689	-530.60632	-1921.95239	551.18536	-226.00246	-1898.927	887.14136	-699.52618	-2134.27368	182.04854	-501.79388	-1891.64856	392.0256	-257.79196	-1852.06042	1371.95544	-347.79565	-1929.35339	1007.40051	-710.96497	-1844.52063	829.39478	-690.13586	-1883.05212	1229.11707	-633.78101	-1967.7074	1125.48389	-704.79749	-1998.3175	248.23567	-255.37616	-1982.51294	22.90092	-325.7435	-1950.21008	1196.75049	-285.9075	-2109.35303	75.05299	-313.71262	-1965.25146	1107.76086	-373.89813	-2034.58508	915.13245	-453.77722	-2119.0498	334.31616	-486.71066	-2171.38574	55.45805	-363.3371	-2048.47217	922.46228	-314.27377	1973.1134	1023.58459	-3101.91504	2012.47119	1021.89557	-3140.62939	-2116.96338	332.69186	-487.01752	-1735.07446	1638.90271	-303.99701	NaN	NaN	NaN	NaN	NaN	NaN	NaN	NaN	NaN	NaN	NaN	NaN	NaN	NaN	NaN	NaN	NaN	NaN	NaN	NaN	NaN	NaN	NaN	NaN	NaN	NaN	NaN	NaN	NaN	NaN	NaN	NaN	NaN	NaN	NaN	NaN	NaN	NaN	NaN	NaN	NaN	NaN	NaN	NaN	NaN	NaN	NaN	NaN	NaN	NaN	NaN	NaN	NaN	NaN
6	0.05	-1710.58313	593.17578	-544.90826	-1670.6322	467.53018	-518.05927	-1821.39612	992.36713	-89.30354	-1672.95667	1118.89136	-376.56836	-1632.86292	956.15338	-246.35388	-1732.14294	1332.13477	-515.16998	-1725.31873	933.36169	-147.50949	-1805.42676	1119.36719	-102.94321	-1724.35474	1299.67871	-206.05971	-1826.50269	879.47028	-270.67407	-1770.95825	1540.23474	-260.40042	-1560.07654	925.58679	-252.80852	-1696.09424	1602.53735	-397.97668	-1667.52344	1610.94788	-287.99786	-1677.47009	1280.8363	-359.97675	-2074.01196	347.43677	-431.74319	-1625.1261	907.22723	-215.67453	-1810.58484	877.83911	-479.27371	-1797.98743	1536.42859	-376.00357	-1835.93018	910.10547	-673.16205	-1828.90515	397.44702	-528.89111	-1893.21948	548.1629	-226.22704	-1877.23755	902.79785	-714.98596	-2034.07764	168.47221	-503.16675	-1877.29749	386.63107	-256.3385	-1809.44019	1373.25	-348.31851	-1901.97241	1022.87946	-719.53296	-1825.07141	842.36334	-711.86951	-1848.19226	1240.76086	-631.63531	-1936.78906	1143.95068	-704.87036	-1988.52271	250.76143	-255.54356	-1982.42322	22.8405	-325.66086	-1903.96326	1198.52563	-284.32968	-2106.0354	81.81628	-312.32947	-1920.8927	1109.62085	-371.60403	-1990.54456	919.18842	-452.02502	-2036.93506	321.36542	-487.0209	-2168.63525	66.86111	-361.57321	-2002.24182	926.72986	-313.1051	1973.2478	1023.38403	-3101.87598	2012.51208	1021.96881	-3140.67188	NaN	NaN	NaN	-1690.69775	1641.10986	-304.62863	-2033.323	318.21671	-487.18942	NaN	NaN	NaN	NaN	NaN	NaN	NaN	NaN	NaN	NaN	NaN	NaN	NaN	NaN	NaN	NaN	NaN	NaN	NaN	NaN	NaN	NaN	NaN	NaN	NaN	NaN	NaN	NaN	NaN	NaN	NaN	NaN	NaN	NaN	NaN	NaN	NaN	NaN	NaN	NaN	NaN	NaN	NaN	NaN	NaN	NaN	NaN	NaN	NaN	NaN	NaN
